From Paris with Love 2010 Hindi DvDRip 300mb by Henry

Rating-6.4/10

------------------------------------------------------------------
Format                           : Matroska
File size                        : 298 MiB
Duration                         : 1h 28mn
Overall bit rate                 : 469 Kbps
Movie name                       : From Paris with Love DvDRip Hindi x264 - Henry Kharay
Encoded date                     : UTC 2010-11-29 02:05:54
Writing application              : mkvmerge v4.2.0 (\'No Talking\') built on Jul 28 2010 18:38:23
Writing library                  : libebml v1.0.0 + libmatroska v1.0.0
-----------------------------------------------------------------
Video
ID                               : 1
Format                           : AVC
Format/Info                      : Advanced Video Codec
Format profile                   : High@L2.1
Format settings, CABAC           : Yes
Format settings, ReFrames        : 4 frames
Muxing mode                      : Container profile=Unknown@2.1
Codec ID                         : V_MPEG4/ISO/AVC
Duration                         : 1h 28mn
Bit rate                         : 377 Kbps
Width                            : 672 pixels
Height                           : 288 pixels
Display aspect ratio             : 2.35:1
Frame rate                       : 25.000 fps
Color space                      : YUV
Chroma subsampling               : 4:2:0
Bit depth                        : 8 bits
Scan type                        : Progressive
Bits/(Pixel*Frame)               : 0.078
Stream size                      : 234 MiB (79%)
Title                            : Ripped By Henry
Writing library                  : x264 
-----------------------------------------------------------------
Audio
ID                               : 2
Format                           : MPEG Audio
Format version                   : Version 1
Format profile                   : Layer 3
Mode                             : Joint stereo
Mode extension                   : MS Stereo
Codec ID                         : A_MPEG/L3
Codec ID/Hint                    : MP3
Duration                         : 1h 28mn
Bit rate mode                    : Variable
Bit rate                         : 90.8 Kbps
Nominal bit rate                 : 112 Kbps
Channel(s)                       : 2 channels
Sampling rate                    : 44.1 KHz
Stream size                      : 57.7 MiB (19%)
Title                            : Henry
Writing library                  : LAME3.98r
Encoding settings                : -m j -V 4 -q 2 -lowpass 15.6 --abr 112
Language                         : Hindi

Sample Include In Torrent

Keep Seeding
thnx...

Screens 
http://img804.imageshack.us/img804/400/vlcsnap2010111509h33m00.png 
http://img3.imageshack.us/img3/9154/vlcsnap2010111509h31m47.png 
http://img98.imageshack.us/img98/2324/vlcsnap2010111509h33m08.png 
http://img194.imageshack.us/img194/7301/vlcsnap2010111509h32m38.png 
http://img716.imageshack.us/img716/7039/vlcsnap2010111509h31m02.png